# Blender v2.82 (sub 7) OBJ File: 'ortsschildA7.blend'
# www.blender.org
mtllib ortsschildA7.mtl
o Cube
v 0.100000 0.100000 -0.100000
v 0.100000 -0.100000 -0.100000
v 0.100000 0.100000 0.100000
v 0.100000 -0.100000 0.100000
v -0.100000 0.100000 -0.100000
v -0.100000 -0.100000 -0.100000
v -0.100000 0.100000 0.100000
v -0.100000 -0.100000 0.100000
v 0.100000 2.100000 0.100000
v -0.100000 2.100000 0.100000
v 0.100000 2.100000 -0.100000
v -0.100000 2.100000 -0.100000
v -0.100000 1.943350 -0.100000
v 0.100000 1.943350 -0.100000
v 0.100000 1.943350 0.100000
v -0.100000 1.943350 0.100000
v 0.100000 2.100000 0.900000
v -0.100000 2.100000 0.900000
v -0.100000 2.100000 -0.900000
v 0.100000 2.100000 -0.900000
v -0.100000 1.943350 -0.900000
v 0.100000 1.943350 0.900000
v 0.100000 1.943350 -0.900000
v -0.100000 1.943350 0.900000
v -0.100000 1.943350 0.740000
v -0.100000 2.100000 0.740000
v 0.100000 2.100000 0.740000
v 0.100000 1.943350 0.740000
v 0.100000 1.943350 -0.740000
v 0.100000 2.100000 -0.740000
v -0.100000 2.100000 -0.740000
v -0.100000 1.943350 -0.740000
v 0.100000 3.100000 0.900000
v -0.100000 3.100000 0.900000
v -0.100000 3.100000 -0.900000
v 0.100000 3.100000 -0.900000
v -0.100000 3.100000 0.740000
v 0.100000 3.100000 0.740000
v 0.100000 3.100000 -0.740000
v -0.100000 3.100000 -0.740000
v -0.100000 2.950000 0.900000
v -0.100000 2.950000 0.740000
v 0.100000 2.950000 0.900000
v 0.100000 2.950000 0.740000
v -0.100000 2.950000 -0.740000
v -0.100000 2.950000 -0.900000
v 0.100000 2.950000 -0.900000
v 0.100000 2.950000 -0.740000
v 0.000000 2.100000 0.100000
v 0.000000 2.100000 -0.100000
v 0.000000 2.100000 0.740000
v 0.000000 2.100000 -0.740000
v 0.000000 2.954380 0.100000
v 0.000000 2.954380 -0.100000
v 0.000000 2.954380 0.740000
v 0.000000 2.954380 -0.740000
v 0.100707 0.100000 -0.100707
v 0.100577 -0.100577 -0.100577
v 0.100707 0.100000 0.100707
v 0.100577 -0.100577 0.100577
v -0.100707 0.100000 -0.100707
v -0.100577 -0.100577 -0.100577
v -0.100707 0.100000 0.100707
v -0.100577 -0.100577 0.100577
v 0.100707 2.100707 0.100000
v -0.100707 2.100707 0.100000
v 0.100707 2.100707 -0.100000
v -0.100707 2.100707 -0.100000
v -0.100905 1.943049 -0.100302
v 0.100905 1.943049 -0.100302
v 0.100905 1.943049 0.100302
v -0.100905 1.943049 0.100302
v 0.100707 2.100000 0.900707
v -0.100707 2.100000 0.900707
v -0.100707 2.100000 -0.900707
v 0.100707 2.100000 -0.900707
v -0.100577 1.942773 -0.900578
v 0.100577 1.942773 0.900578
v 0.100577 1.942773 -0.900578
v -0.100577 1.942773 0.900578
v -0.100707 1.942643 0.740000
v -0.100905 2.100302 0.739699
v 0.100905 2.100302 0.739699
v 0.100707 1.942643 0.740000
v 0.100707 1.942643 -0.740000
v 0.100905 2.100302 -0.739699
v -0.100905 2.100302 -0.739699
v -0.100707 1.942643 -0.740000
v 0.100577 3.100578 0.900578
v -0.100577 3.100578 0.900578
v -0.100577 3.100578 -0.900578
v 0.100577 3.100578 -0.900578
v -0.100667 3.100667 0.739667
v 0.100667 3.100667 0.739667
v 0.100667 3.100667 -0.739667
v -0.100667 3.100667 -0.739667
v -0.100707 2.950000 0.900707
v -0.100802 2.949733 0.739466
v 0.100707 2.950000 0.900707
v 0.100802 2.949733 0.739466
v -0.100802 2.949733 -0.739466
v -0.100707 2.950000 -0.900707
v 0.100707 2.950000 -0.900707
v 0.100802 2.949733 -0.739466
v 0.000447 2.100894 0.100000
v 0.000447 2.100894 -0.100000
v 0.000333 2.100667 0.739334
v 0.000333 2.100667 -0.739334
v 0.001000 2.954380 0.100000
v 0.001000 2.954380 -0.100000
v 0.001000 2.954380 0.740000
v 0.001000 2.954380 -0.740000
vt 0.625000 0.250000
vt 0.625000 0.250000
vt 0.625000 0.250000
vt 0.625000 0.250000
vt 0.375000 0.750000
vt 0.375000 1.000000
vt 0.625000 1.000000
vt 0.625000 0.750000
vt 0.375000 0.000000
vt 0.375000 0.250000
vt 0.625000 0.250000
vt 0.625000 0.000000
vt 0.125000 0.500000
vt 0.125000 0.750000
vt 0.375000 0.500000
vt 0.625000 0.500000
vt 0.750000 0.500000
vt 0.750000 0.750000
vt 0.875000 0.750000
vt 0.875000 0.500000
vt 0.625000 0.000000
vt 0.625000 0.000000
vt 0.625000 0.000000
vt 0.625000 0.000000
vt 0.625000 0.250000
vt 0.625000 0.250000
vt 0.625000 0.000000
vt 0.625000 0.000000
vt 0.625000 0.750000
vt 0.625000 0.750000
vt 0.625000 0.500000
vt 0.625000 0.500000
vt 0.625000 1.000000
vt 0.625000 0.500000
vt 0.625000 0.500000
vt 0.625000 0.250000
vt 0.625000 0.250000
vt 0.625000 1.000000
vt 0.625000 1.000000
vt 0.625000 0.750000
vt 0.625000 0.750000
vt 0.625000 0.500000
vt 0.625000 0.500000
vt 0.625000 1.000000
vt 0.625000 0.750000
vt 0.625000 0.000000
vt 0.625000 0.000000
vt 0.625000 0.000000
vt 0.625000 0.000000
vt 0.625000 0.750000
vt 0.625000 0.250000
vt 0.625000 0.250000
vt 0.750000 0.750000
vt 0.875000 0.750000
vt 0.750000 0.500000
vt 0.625000 0.750000
vt 0.625000 0.750000
vt 0.875000 0.750000
vt 0.875000 0.750000
vt 0.875000 0.500000
vt 0.875000 0.500000
vt 0.625000 0.500000
vt 0.625000 0.500000
vt 0.625000 1.000000
vt 0.625000 1.000000
vt 0.625000 0.750000
vt 0.625000 0.750000
vt 0.625000 0.500000
vt 0.625000 0.500000
vt 0.875000 0.750000
vt 0.875000 0.500000
vt 0.875000 0.500000
vt 0.625000 0.250000
vt 0.625000 0.250000
vt 0.625000 0.250000
vt 0.625000 0.250000
vt 0.375000 0.750000
vt 0.625000 0.750000
vt 0.625000 1.000000
vt 0.375000 1.000000
vt 0.375000 0.000000
vt 0.625000 0.000000
vt 0.625000 0.250000
vt 0.375000 0.250000
vt 0.125000 0.500000
vt 0.375000 0.500000
vt 0.125000 0.750000
vt 0.625000 0.500000
vt 0.750000 0.500000
vt 0.875000 0.500000
vt 0.875000 0.750000
vt 0.750000 0.750000
vt 0.625000 0.000000
vt 0.625000 0.000000
vt 0.625000 0.000000
vt 0.625000 0.000000
vt 0.625000 0.250000
vt 0.625000 0.000000
vt 0.625000 0.000000
vt 0.625000 0.250000
vt 0.625000 0.750000
vt 0.625000 0.500000
vt 0.625000 0.500000
vt 0.625000 0.750000
vt 0.625000 1.000000
vt 0.625000 0.500000
vt 0.625000 0.250000
vt 0.625000 0.250000
vt 0.625000 0.500000
vt 0.625000 1.000000
vt 0.625000 0.750000
vt 0.625000 0.750000
vt 0.625000 1.000000
vt 0.625000 0.500000
vt 0.625000 0.500000
vt 0.625000 1.000000
vt 0.625000 0.750000
vt 0.625000 0.000000
vt 0.625000 0.000000
vt 0.625000 0.000000
vt 0.625000 0.000000
vt 0.625000 0.750000
vt 0.625000 0.250000
vt 0.625000 0.250000
vt 0.875000 0.750000
vt 0.750000 0.750000
vt 0.750000 0.500000
vt 0.625000 0.750000
vt 0.875000 0.750000
vt 0.875000 0.750000
vt 0.625000 0.750000
vt 0.875000 0.500000
vt 0.625000 0.500000
vt 0.625000 0.500000
vt 0.875000 0.500000
vt 0.625000 1.000000
vt 0.625000 0.750000
vt 0.625000 1.000000
vt 0.625000 0.750000
vt 0.625000 0.500000
vt 0.625000 0.500000
vt 0.875000 0.750000
vt 0.875000 0.500000
vt 0.875000 0.500000
vt 0.750000 0.500000
vt 0.750000 0.500000
vt 0.750000 0.500000
vt 0.750000 0.500000
vt 0.750000 0.750000
vt 0.750000 0.750000
vt 0.750000 0.750000
vt 0.750000 0.750000
vn 1.0000 0.0000 0.0000
vn 0.0000 0.0000 -1.0000
vn 0.0000 1.0000 0.0000
vn -1.0000 0.0000 0.0000
vn 0.0000 0.0000 1.0000
vn 0.0000 -1.0000 0.0000
vn -1.0000 0.0009 -0.0006
vn 0.0000 -0.0006 1.0000
vn -1.0000 -0.0006 0.0000
vn 1.0000 -0.0006 0.0000
vn 0.0000 -0.0006 -1.0000
vn -0.0019 1.0000 0.0000
vn -1.0000 -0.0010 0.0010
vn -1.0000 0.0013 0.0000
vn 1.0000 0.0013 0.0000
vn 1.0000 -0.0001 0.0000
vn -1.0000 -0.0001 0.0000
vn 0.0000 0.0002 1.0000
vn 0.0000 0.0002 -1.0000
vn 0.0000 -0.0008 -1.0000
vn 0.0000 -0.0008 1.0000
vn 1.0000 -0.0010 -0.0010
vn 0.0000 -1.0000 0.0008
vn -1.0000 0.0009 0.0006
vn 1.0000 -0.0010 0.0010
vn 0.0000 -1.0000 -0.0008
vn -1.0000 -0.0010 -0.0010
vn 0.0000 -1.0000 -0.0006
vn -0.0027 1.0000 0.0005
vn 0.0000 -1.0000 0.0006
vn 0.0027 1.0000 -0.0005
vn 0.0000 1.0000 0.0006
vn 0.0000 1.0000 -0.0006
vn 0.0000 0.0009 1.0000
vn 1.0000 0.0009 0.0006
vn 1.0000 0.0009 -0.0006
vn 0.0000 0.0013 -1.0000
vn 0.0000 0.0009 -1.0000
vn 0.0000 0.0013 1.0000
vn 0.0000 -0.0001 -1.0000
vn 1.0000 0.0001 0.0009
vn -1.0000 0.0001 0.0009
vn 0.0000 -0.0001 1.0000
vn 1.0000 0.0001 -0.0009
vn -1.0000 0.0001 -0.0009
vn 1.0000 0.0009 0.0000
vn -1.0000 0.0009 0.0000
vn -0.0027 1.0000 -0.0005
vn 0.0027 1.0000 0.0005
vn 0.0019 1.0000 0.0000
vn 0.4475 -0.0005 0.8943
vn 0.4475 -0.0005 -0.8943
vn 1.0000 -0.0007 0.0001
vn 1.0000 -0.0007 -0.0001
usemtl MetallMata
s off
f 46/1/1 35/2/1 40/3/1 45/4/1
f 4/5/2 8/6/2 7/7/2 3/8/2
f 8/9/1 6/10/1 5/11/1 7/12/1
f 6/13/3 8/14/3 4/5/3 2/15/3
f 2/15/4 4/5/4 3/8/4 1/16/4
f 6/10/5 2/15/5 1/16/5 5/11/5
f 50/17/6 49/18/6 10/19/6 12/20/6
f 26/21/1 18/22/1 24/23/1 25/24/1
f 13/25/1 12/26/1 10/27/1 16/28/1
f 15/29/4 9/30/4 11/31/4 14/32/4
f 3/8/4 15/29/4 14/32/4 1/16/4
f 5/11/1 13/25/1 16/28/1 7/12/1
f 7/7/2 16/33/2 15/29/2 3/8/2
f 1/16/5 14/32/5 13/25/5 5/11/5
f 23/34/5 20/35/5 19/36/5 21/37/5
f 24/38/2 18/39/2 17/40/2 22/41/2
f 30/42/4 20/35/4 23/34/4 29/43/4
f 25/44/3 24/38/3 22/41/3 28/45/3
f 42/46/1 37/47/1 34/48/1 41/49/1
f 28/45/4 22/41/4 17/40/4 27/50/4
f 29/43/3 23/34/3 21/37/3 32/51/3
f 32/51/1 21/37/1 19/36/1 31/52/1
f 15/29/4 28/45/4 27/50/4 9/30/4
f 16/33/3 25/44/3 28/45/3 15/29/3
f 10/27/1 26/21/1 25/24/1 16/28/1
f 49/18/6 51/53/6 26/54/6 10/19/6
f 13/25/1 32/51/1 31/52/1 12/26/1
f 14/32/3 29/43/3 32/51/3 13/25/3
f 50/17/6 52/55/6 30/42/6 11/31/6
f 11/31/4 30/42/4 29/43/4 14/32/4
f 38/56/6 33/57/6 34/58/6 37/59/6
f 40/60/6 35/61/6 36/62/6 39/63/6
f 41/64/2 34/65/2 33/57/2 43/66/2
f 43/66/4 33/57/4 38/56/4 44/67/4
f 48/68/4 39/63/4 36/62/4 47/69/4
f 44/67/5 38/56/5 37/59/5 42/70/5
f 47/69/5 36/62/5 35/2/5 46/1/5
f 45/71/2 40/60/2 39/63/2 48/68/2
f 27/50/5 44/67/5 42/70/5 26/54/5 51/53/5
f 17/40/4 43/66/4 44/67/4 27/50/4
f 18/39/2 41/64/2 43/66/2 17/40/2
f 26/21/1 42/46/1 41/49/1 18/22/1
f 31/72/2 45/71/2 48/68/2 30/42/2 52/55/2
f 20/35/5 47/69/5 46/1/5 19/36/5
f 30/42/4 48/68/4 47/69/4 20/35/4
f 19/36/1 46/1/1 45/4/1 31/52/1
f 39/63/4 48/68/4 44/67/4 38/56/4
f 38/56/6 37/59/6 40/60/6 39/63/6
f 37/59/1 42/70/1 45/71/1 40/60/1
f 44/67/3 48/68/3 45/71/3 42/70/3
f 12/20/6 31/72/6 52/55/6 50/17/6
f 9/30/6 27/50/6 51/53/6 49/18/6
f 11/31/6 9/30/6 49/18/6 50/17/6
f 102/73/7 101/74/7 96/75/7 91/76/7
f 60/77/8 59/78/8 63/79/8 64/80/8
f 64/81/9 63/82/9 61/83/9 62/84/9
f 62/85/6 58/86/6 60/77/6 64/87/6
f 58/86/10 57/88/10 59/78/10 60/77/10
f 62/84/11 61/83/11 57/88/11 58/86/11
f 106/89/12 68/90/12 66/91/12 105/92/12
f 82/93/13 81/94/13 80/95/13 74/96/13
f 69/97/14 72/98/14 66/99/14 68/100/14
f 71/101/15 70/102/15 67/103/15 65/104/15
f 59/78/16 57/88/16 70/102/16 71/101/16
f 61/83/17 63/82/17 72/98/17 69/97/17
f 63/79/18 59/78/18 71/101/18 72/105/18
f 57/88/19 61/83/19 69/97/19 70/102/19
f 79/106/20 77/107/20 75/108/20 76/109/20
f 80/110/21 78/111/21 73/112/21 74/113/21
f 86/114/22 85/115/22 79/106/22 76/109/22
f 81/116/23 84/117/23 78/111/23 80/110/23
f 98/118/24 97/119/24 90/120/24 93/121/24
f 84/117/25 83/122/25 73/112/25 78/111/25
f 85/115/26 88/123/26 77/107/26 79/106/26
f 88/123/27 87/124/27 75/108/27 77/107/27
f 71/101/1 65/104/1 83/122/1 84/117/1
f 72/105/28 71/101/28 84/117/28 81/116/28
f 66/99/4 72/98/4 81/94/4 82/93/4
f 105/92/29 66/91/29 82/125/29 107/126/29
f 69/97/4 68/100/4 87/124/4 88/123/4
f 70/102/30 69/97/30 88/123/30 85/115/30
f 106/89/31 67/103/31 86/114/31 108/127/31
f 67/103/1 70/102/1 85/115/1 86/114/1
f 94/128/32 93/129/32 90/130/32 89/131/32
f 96/132/33 95/133/33 92/134/33 91/135/33
f 97/136/34 99/137/34 89/131/34 90/138/34
f 99/137/35 100/139/35 94/128/35 89/131/35
f 104/140/36 103/141/36 92/134/36 95/133/36
f 100/139/37 98/142/37 93/129/37 94/128/37
f 103/141/38 102/73/38 91/76/38 92/134/38
f 101/143/39 104/140/39 95/133/39 96/132/39
f 83/122/40 107/126/40 82/125/40 98/142/40 100/139/40
f 73/112/41 83/122/41 100/139/41 99/137/41
f 74/113/5 73/112/5 99/137/5 97/136/5
f 82/93/42 74/96/42 97/119/42 98/118/42
f 87/144/43 108/127/43 86/114/43 104/140/43 101/143/43
f 76/109/2 75/108/2 102/73/2 103/141/2
f 86/114/44 76/109/44 103/141/44 104/140/44
f 75/108/45 87/124/45 101/74/45 102/73/45
f 95/133/46 94/128/46 100/139/46 104/140/46
f 94/128/3 95/133/3 96/132/3 93/129/3
f 93/129/47 96/132/47 101/143/47 98/142/47
f 100/139/6 98/142/6 101/143/6 104/140/6
f 68/90/48 106/89/48 108/127/48 87/144/48
f 65/104/49 105/92/49 107/126/49 83/122/49
f 67/103/50 106/89/50 105/92/50 65/104/50
f 56/145/3 54/146/3 110/147/3 112/148/3
f 53/149/3 55/150/3 111/151/3 109/152/3
f 54/146/3 53/149/3 109/152/3 110/147/3
f 55/150/51 51/53/51 107/126/51 111/151/51
f 52/55/52 56/145/52 112/148/52 108/127/52
usemtl SignMat
f 49/18/4 53/149/4 54/146/4 50/17/4
f 51/53/4 55/150/4 53/149/4 49/18/4
f 52/55/4 50/17/4 54/146/4 56/145/4
f 105/92/10 106/89/10 110/147/10 109/152/10
f 107/126/53 105/92/53 109/152/53 111/151/53
f 108/127/54 112/148/54 110/147/54 106/89/54
